<?xml version="1.0" encoding="utf-8"?>
<!-- Generator: Adobe Illustrator 24.0.1, SVG Export Plug-In . SVG Version: 6.00 Build 0)  -->
<svg version="1.1" id="Layer_1" xmlns="http://www.w3.org/2000/svg" xmlns:xlink="http://www.w3.org/1999/xlink" x="0px" y="0px"
	 viewBox="0 0 30 30" style="enable-background:new 0 0 30 30;" xml:space="preserve">
<style type="text/css">
	.st0{fill:#EE2E30;}
	.st1{fill:#002856;}
	.st2{fill:#FFFFFF;}
	.st3{fill-rule:evenodd;clip-rule:evenodd;fill:#FFFFFF;}
	.st4{fill:url(#SVGID_1_);}
	.st5{fill:url(#SVGID_2_);}
	.st6{fill:url(#SVGID_3_);}
	.st7{fill:url(#SVGID_4_);}
	.st8{fill:url(#SVGID_5_);}
	.st9{fill:#00BBB4;}
	.st10{fill:#A2A9AD;}
	.st11{fill:#3279BE;}
	.st12{fill:url(#SVGID_6_);}
	.st13{fill:#00B8E9;}
	.st14{fill:url(#SVGID_7_);}
	.st15{fill:#010101;}
	.st16{fill-rule:evenodd;clip-rule:evenodd;fill:#EE2D59;}
	.st17{fill-rule:evenodd;clip-rule:evenodd;fill:#19BEC9;}
	.st18{fill:#00A650;}
	.st19{opacity:0.8;fill:url(#SVGID_8_);}
	.st20{fill:url(#SVGID_9_);}
	.st21{fill:url(#SVGID_10_);}
	.st22{fill:url(#SVGID_11_);}
	.st23{fill:url(#SVGID_12_);}
	.st24{fill:url(#SVGID_13_);}
	.st25{fill:url(#SVGID_14_);}
</style>
<g>
	
		<linearGradient id="SVGID_1_" gradientUnits="userSpaceOnUse" x1="311.0861" y1="-478.4244" x2="349.8441" y2="-439.6664" gradientTransform="matrix(0 1 -1 0 -448.1469 -311.3636)">
		<stop  offset="1.104800e-03" style="stop-color:#FFE187"/>
		<stop  offset="0.2094" style="stop-color:#FDB944"/>
		<stop  offset="0.3765" style="stop-color:#F05577"/>
		<stop  offset="0.5238" style="stop-color:#ED3995"/>
		<stop  offset="0.7394" style="stop-color:#8E509F"/>
		<stop  offset="1" style="stop-color:#5E5DA9"/>
	</linearGradient>
	<path class="st4" d="M0,22.16L0,7.87c0-4.31,3.53-7.84,7.84-7.84l14.29,0c4.31,0,7.84,3.53,7.84,7.84l0,14.29
		c0,4.31-3.53,7.84-7.84,7.84L7.84,30C3.53,30,0,26.47,0,22.16z"/>
	<g>
		<path class="st2" d="M19.64,9.37c-0.57,0-1.03,0.46-1.03,1.03c0,0.57,0.46,1.03,1.03,1.03c0.57,0,1.03-0.46,1.03-1.03
			C20.67,9.83,20.2,9.37,19.64,9.37z"/>
		<path class="st2" d="M15.06,10.69c-2.39,0-4.33,1.94-4.33,4.33c0,2.39,1.94,4.33,4.33,4.33c2.39,0,4.33-1.94,4.33-4.33
			C19.38,12.63,17.44,10.69,15.06,10.69z M15.06,17.79c-1.53,0-2.77-1.24-2.77-2.77s1.24-2.77,2.77-2.77c1.53,0,2.77,1.24,2.77,2.77
			S16.58,17.79,15.06,17.79z"/>
		<path class="st2" d="M18.49,23.8h-7.01c-2.91,0-5.28-2.37-5.28-5.28v-7.01c0-2.91,2.37-5.28,5.28-5.28h7.01
			c2.91,0,5.28,2.37,5.28,5.28v7.01C23.77,21.43,21.4,23.8,18.49,23.8z M11.48,7.88c-2,0-3.62,1.63-3.62,3.62v7.01
			c0,2,1.63,3.62,3.62,3.62h7.01c2,0,3.62-1.63,3.62-3.62v-7.01c0-2-1.63-3.62-3.62-3.62H11.48z"/>
	</g>
</g>
</svg>
