<?xml version="1.0" encoding="utf-8"?>
<!-- Generator: Adobe Illustrator 24.0.1, SVG Export Plug-In . SVG Version: 6.00 Build 0)  -->
<svg version="1.1" id="Layer_1" xmlns="http://www.w3.org/2000/svg" xmlns:xlink="http://www.w3.org/1999/xlink" x="0px" y="0px"
	 viewBox="0 0 30 30" style="enable-background:new 0 0 30 30;" xml:space="preserve">
<style type="text/css">
	.st0{fill:#EE2E30;}
	.st1{fill:#002856;}
	.st2{fill:#FFFFFF;}
	.st3{fill-rule:evenodd;clip-rule:evenodd;fill:#FFFFFF;}
	.st4{fill:url(#SVGID_1_);}
	.st5{fill:url(#SVGID_2_);}
	.st6{fill:url(#SVGID_3_);}
	.st7{fill:url(#SVGID_4_);}
	.st8{fill:url(#SVGID_5_);}
	.st9{fill:#00BBB4;}
	.st10{fill:#A2A9AD;}
	.st11{fill:#3279BE;}
	.st12{fill:url(#SVGID_6_);}
	.st13{fill:#00B8E9;}
	.st14{fill:url(#SVGID_7_);}
	.st15{fill:#010101;}
	.st16{fill-rule:evenodd;clip-rule:evenodd;fill:#EE2D59;}
	.st17{fill-rule:evenodd;clip-rule:evenodd;fill:#19BEC9;}
	.st18{fill:#00A650;}
	.st19{opacity:0.8;fill:url(#SVGID_8_);}
	.st20{fill:url(#SVGID_9_);}
	.st21{fill:url(#SVGID_10_);}
	.st22{fill:url(#SVGID_11_);}
	.st23{fill:url(#SVGID_12_);}
	.st24{fill:url(#SVGID_13_);}
	.st25{fill:url(#SVGID_14_);}
</style>
<g>
	
		<linearGradient id="SVGID_1_" gradientUnits="userSpaceOnUse" x1="219.6137" y1="-527.4127" x2="245.0033" y2="-502.0231" gradientTransform="matrix(0 1 -1 0 -499.7179 -217.3085)">
		<stop  offset="0" style="stop-color:#EE2E30"/>
		<stop  offset="1" style="stop-color:#9C1C1F"/>
	</linearGradient>
	<path class="st4" d="M0,22.15V7.85C0,3.53,3.53,0,7.85,0l14.31,0C26.47,0,30,3.53,30,7.85l0,14.31c0,4.32-3.53,7.85-7.85,7.85H7.85
		C3.53,30,0,26.47,0,22.15z"/>
	<path class="st2" d="M23.03,12.82c0-1.99-1.61-3.6-3.6-3.6h-9.21c-1.99,0-3.6,1.61-3.6,3.6v4.29c0,1.99,1.61,3.6,3.6,3.6h9.21
		c1.99,0,3.6-1.61,3.6-3.6V12.82z M17.61,15.28l-4.13,2.04c-0.16,0.09-0.71-0.03-0.71-0.21v-4.19c0-0.19,0.55-0.3,0.72-0.21
		l3.95,2.15C17.61,14.95,17.78,15.19,17.61,15.28z"/>
</g>
</svg>
