<?xml version="1.0" encoding="utf-8"?>
<!-- Generator: Adobe Illustrator 24.0.1, SVG Export Plug-In . SVG Version: 6.00 Build 0)  -->
<svg version="1.1" id="Layer_1" xmlns="http://www.w3.org/2000/svg" xmlns:xlink="http://www.w3.org/1999/xlink" x="0px" y="0px"
	 viewBox="0 0 30 30" style="enable-background:new 0 0 30 30;" xml:space="preserve">
<style type="text/css">
	.st0{fill:#EE2E30;}
	.st1{fill:#002856;}
	.st2{fill:#FFFFFF;}
	.st3{fill-rule:evenodd;clip-rule:evenodd;fill:#FFFFFF;}
	.st4{fill:url(#SVGID_1_);}
	.st5{fill:url(#SVGID_2_);}
	.st6{fill:url(#SVGID_3_);}
	.st7{fill:url(#SVGID_4_);}
	.st8{fill:url(#SVGID_5_);}
	.st9{fill:#00BBB4;}
	.st10{fill:#A2A9AD;}
	.st11{fill:#3279BE;}
	.st12{fill:url(#SVGID_6_);}
	.st13{fill:#00B8E9;}
	.st14{fill:url(#SVGID_7_);}
	.st15{fill:#010101;}
	.st16{fill-rule:evenodd;clip-rule:evenodd;fill:#EE2D59;}
	.st17{fill-rule:evenodd;clip-rule:evenodd;fill:#19BEC9;}
	.st18{fill:#00A650;}
	.st19{opacity:0.8;fill:url(#SVGID_8_);}
	.st20{fill:url(#SVGID_9_);}
	.st21{fill:url(#SVGID_10_);}
	.st22{fill:url(#SVGID_11_);}
	.st23{fill:url(#SVGID_12_);}
	.st24{fill:url(#SVGID_13_);}
	.st25{fill:url(#SVGID_14_);}
</style>
<g>
	
		<linearGradient id="SVGID_1_" gradientUnits="userSpaceOnUse" x1="324.8129" y1="-447.1218" x2="350.1759" y2="-421.7587" gradientTransform="matrix(0 1 -1 0 -419.4403 -322.4788)">
		<stop  offset="0" style="stop-color:#5171B7"/>
		<stop  offset="0.1576" style="stop-color:#4E6CB3"/>
		<stop  offset="0.4141" style="stop-color:#485EAA"/>
		<stop  offset="0.7354" style="stop-color:#3E479D"/>
		<stop  offset="1" style="stop-color:#353191"/>
	</linearGradient>
	<path class="st4" d="M0.02,22.16V7.87c0-4.31,3.53-7.84,7.84-7.84h14.29c4.31,0,7.84,3.53,7.84,7.84l0,14.29
		c0,4.31-3.53,7.84-7.84,7.84h-4.8l-2.52-0.61L12.66,30l-4.8,0C3.54,30,0.02,26.47,0.02,22.16z"/>
	<g>
		<path class="st2" d="M20.83,19.84l0.66-4.33h-4.16V12.7c0-1.19,0.58-2.34,2.44-2.34h1.89V6.67c0,0-1.71-0.29-3.35-0.29
			c-3.42,0-5.66,2.07-5.66,5.83v3.3h-3.8v4.33h3.8V30h4.68V19.84H20.83z"/>
	</g>
</g>
</svg>
